<mxfile host="app.diagrams.net" modified="2024-09-26T03:54:01.122Z" agent="Mozilla/5.0 (Windows NT 10.0; Win64; x64) AppleWebKit/537.36 (KHTML, like Gecko) Chrome/129.0.0.0 Safari/537.36 Edg/129.0.0.0" version="24.6.4" etag="saLqXywV4HvqxC_W6GVA" type="github">
  <diagram name="Page-1" id="cDvSa5qI897H98x1VeQ1">
    <mxGraphModel>
      <root>
        <mxCell id="0" />
        <mxCell id="1" parent="0" />
      </root>
    </mxGraphModel>
  </diagram>
</mxfile>
